<?xml version="1.0" encoding="UTF-8"?>
<svg version="1.1" xmlns="http://www.w3.org/2000/svg" width="225" height="225">
<path d="M0 0 C74.25 0 148.5 0 225 0 C225 74.25 225 148.5 225 225 C150.75 225 76.5 225 0 225 C0 150.75 0 76.5 0 0 Z " fill="#FEFEFE" transform="translate(0,0)"/>
<path d="M0 0 C6.77809777 5.75442612 10.54832569 11.29208623 12.1015625 20.01171875 C13.23442528 34.6983081 11.72892232 49.18250644 9.5246582 63.68139648 C7.98256013 73.80108354 7.98256013 73.80108354 8.1015625 84.01171875 C9.25172504 85.37394182 9.25172504 85.37394182 12.3515625 85.32421875 C17.30653376 84.91130448 19.35961327 83.0175044 22.58935547 79.29858398 C24.23861316 77.25234002 25.83408662 75.17441071 27.4140625 73.07421875 C28.27173218 71.94077026 28.27173218 71.94077026 29.14672852 70.78442383 C36.59837856 60.81696031 42.91984092 50.34370799 48.1015625 39.01171875 C48.61396484 37.96371094 48.61396484 37.96371094 49.13671875 36.89453125 C52.58349823 28.65432357 52.90711312 17.16777567 49.96484375 8.765625 C47.1811735 3.84853819 44.09625059 0.62798394 39.1015625 -1.98828125 C39.4315625 -2.64828125 39.7615625 -3.30828125 40.1015625 -3.98828125 C45.6286933 -5.71474705 50.70698847 -6.34631489 56.4765625 -6.30078125 C57.59019165 -6.29340942 57.59019165 -6.29340942 58.72631836 -6.28588867 C68.72805754 -6.07317855 77.39147219 -3.28403394 84.82421875 3.609375 C91.36490739 10.66431926 93.42926956 19.33999637 93.31640625 28.7578125 C91.30666739 59.19622104 72.19303406 84.43120392 50.1015625 104.01171875 C36.29736516 115.66555396 19.49034788 124.27120464 2.1015625 129.01171875 C1.225 129.25535156 0.3484375 129.49898437 -0.5546875 129.75 C-12.78964443 132.66970563 -26.15718959 132.09307152 -37.2109375 125.76171875 C-44.31079095 120.86877271 -48.96725198 114.45930682 -50.8984375 106.01171875 C-52.19464836 94.87884228 -50.38397719 84.34490469 -48.3984375 73.38671875 C-43.43478975 46.98414452 -43.43478975 46.98414452 -50.8984375 22.01171875 C-51.33285156 21.26148437 -51.76726562 20.51125 -52.21484375 19.73828125 C-55.92035245 14.05861264 -60.97094807 11.10432193 -66.8984375 8.01171875 C-64.15030624 4.61025817 -60.37551493 3.19259037 -56.4609375 1.51171875 C-55.74881104 1.20347168 -55.03668457 0.89522461 -54.30297852 0.57763672 C-48.30024896 -1.95103245 -42.29972743 -3.74964156 -35.8984375 -4.98828125 C-34.196875 -5.32859375 -34.196875 -5.32859375 -32.4609375 -5.67578125 C-20.99057935 -6.68195302 -9.85605883 -6.76109696 0 0 Z " fill="#050206" transform="translate(131.8984375,49.98828125)"/>
<path d="M0 0 C5.27268726 3.80123965 9.5077375 8.38326387 10.6875 14.9375 C11.23494301 23.13304384 7.20856584 28.45112009 2.6875 34.9375 C-8.25393304 51.1377556 -16.97963871 66.7671798 -15.3125 86.9375 C-13.78363073 92.52407095 -10.59567915 96.09362128 -6.3125 99.9375 C-5.30776074 100.93273818 -4.3067198 101.93175302 -3.3125 102.9375 C-13.49882243 107.38244069 -26.59520001 107.817125 -37.109375 103.97265625 C-45.38155347 100.08590573 -51.79420725 95.04245212 -55.34375 86.4375 C-60.52186217 69.94425384 -56.17291261 53.44885242 -48.44506836 38.59765625 C-39.10675599 21.25599596 -23.34552125 -7.48818606 0 0 Z " fill="#060307" transform="translate(57.3125,75.0625)"/>
</svg>
